<?xml version="1.0" encoding="UTF-8" standalone="no"?>
<svg
   preserveAspectRatio="none"
   width="35"
   height="35"
   viewBox="0 0 35 35"
   fill="none"
   version="1.1"
   id="svg4"
   xmlns="http://www.w3.org/2000/svg"
   xmlns:svg="http://www.w3.org/2000/svg">
  <g
    style="fill:#000000"
    id="g302"
    transform="translate(10.000001,7.50001)">
    <path
      d="M 14.4579,16.6577 C 13.1378,19.2713 10.5786,19.9075 7.57418,19.9892 5.28981,20.0513 3.59569,19.8889 1.98116,18.3234 -0.168647,16.239 -0.739192,13.1586 1.12069,10.8275 2.178,9.50228 3.60493,9.74475 4.99279,8.74528 6.51788,7.64699 8.43465,4.9973 8.43465,4.9973 H 9.7253 c 0.7514,-1e-5 1.7209,0.83289 1.7209,0.83289 0,0 1.4391,2.54599 2.1512,4.16442 1.0617,2.41259 2.0504,4.30719 0.8605,6.66309 z"
      fill="#d9d9d9"
      id="path290"
      style="fill:#000000" />
    <path
      d="m 10.1556,3.74798 c -0.64011,-0.19827 -1.72095,0 -1.72095,0 V 0 c 0,0 2.15125,0.416442 3.01165,1.66577 0.8604,1.24932 3.4418,0.83288 3.4418,0.83288 l -3.4418,2.08221 z"
      fill="#d9d9d9"
      id="path292"
      style="fill:#000000" />
  </g>
</svg>
