<?xml version="1.0" encoding="UTF-8" standalone="no"?>
<svg
  preserveAspectRatio="none"
  width="35"
  height="35"
  viewBox="0 0 35 35"
  fill="none"
  version="1.1"
  id="svg4"
  xmlns="http://www.w3.org/2000/svg"
  xmlns:svg="http://www.w3.org/2000/svg">
  <g
    style="fill:#000000"
    id="g349"
    transform="translate(12,8.5)">
    <path
      fill-rule="evenodd"
      clip-rule="evenodd"
      d="M 3,2 C 3,2.17265 2.98359,2.34019 2.95274,2.5 2.78623,1.63739 2.19894,1 1.5,1 0.80106,1 0.213773,1.63739 0.0472566,2.5 0.0164074,2.34019 0,2.17265 0,2 0,0.895431 0.671573,0 1.5,0 2.32843,0 3,0.895431 3,2 Z M 7,2 C 7,2.17265 6.98359,2.34019 6.95274,2.5 6.78623,1.63739 6.19894,1 5.5,1 4.80106,1 4.21377,1.63739 4.04726,2.5 4.01641,2.34019 4,2.17265 4,2 4,0.895431 4.67157,0 5.5,0 6.32843,0 7,0.895431 7,2 Z m 3.9527,0.5 C 10.9836,2.34019 11,2.17265 11,2 11,0.895431 10.3284,0 9.5,0 8.67157,0 8,0.895431 8,2 8,2.17265 8.01641,2.34019 8.04726,2.5 8.21377,1.63739 8.80106,1 9.5,1 c 0.6989,0 1.2862,0.63739 1.4527,1.5 z M 0,4 C 0,3.44771 0.447715,3 1,3 h 9 c 0.5523,0 1,0.44772 1,1 v 13 c 0,0.5523 -0.4477,1 -1,1 H 1 C 0.447715,18 0,17.5523 0,17 Z M 0.846191,6 H 9.30773 V 7 H 0.846191 Z M 9.30777,9 H 1.69238 v 1 h 7.61539 z m -7.61539,4 h 7.61539 v 1 H 1.69238 Z"
      fill="#d9d9d9"
      id="path340"
      style="fill:#000000" />
  </g>
</svg>
