<?xml version="1.0" encoding="UTF-8" standalone="no"?>
<svg
   preserveAspectRatio="none"
   width="35"
   height="35"
   viewBox="0 0 35 35"
   fill="none"
   version="1.1"
   id="svg4"
   xmlns="http://www.w3.org/2000/svg"
   xmlns:svg="http://www.w3.org/2000/svg">
  <path
     d="m 17.5,27.999983 c -2.54692,0.0116 -5,-3 -5,-3 0,0 1.11106,-7.92 1.11111,-9.00001 5e-5,-1.08002 2.43056,-2 2.43056,-2 0,0 -2.25243,-1.486 -2.43056,-3 C 13.353072,8.8068433 15.35223,6.9999833 17.5,6.9999833 c 2.14777,0 4.14693,1.80686 3.88889,3.9999897 -0.17814,1.514 -2.43056,3 -2.43056,3 0,0 2.43056,0.91998 2.43056,2 0,1.08001 1.11111,9.00001 1.11111,9.00001 0,0 -2.49777,2.9886 -5,3 z"
     style="fill:#000000" />
</svg>
